HIERARCHY
ROOT hip
{
  OFFSET 0 0 0
  CHANNELS 6 Xposition Yposition Zposition Zrotation Yrotation Xrotation
  JOINT abdomen
  {
    OFFSET 0 20.6881 -0.73152
    CHANNELS 3 Zrotation Xrotation Yrotation
    JOINT chest
    {
      OFFSET 0 11.7043 -0.48768
      CHANNELS 3 Zrotation Xrotation Yrotation
      JOINT neck
      {
        OFFSET 0 22.1894 -2.19456
        CHANNELS 3 Zrotation Xrotation Yrotation
        JOINT head
        {
          OFFSET -0.24384 7.07133 1.2192
          CHANNELS 3 Zrotation Xrotation Yrotation
          JOINT leftEye
          {
            OFFSET 4.14528 8.04674 8.04672
            CHANNELS 3 Zrotation Xrotation Yrotation
            End Site
            {
              OFFSET 1 0 0
            }
          }
          JOINT rightEye
          {
            OFFSET -3.6576 8.04674 8.04672
            CHANNELS 3 Zrotation Xrotation Yrotation
            End Site
            {
              OFFSET 1 0 0
            }
          }
        }
      }
      JOINT rCollar
      {
        OFFSET -2.68224 19.2634 -4.8768
        CHANNELS 3 Zrotation Xrotation Yrotation
        JOINT rShldr
        {
          OFFSET -8.77824 -1.95073 1.46304
          CHANNELS 3 Zrotation Xrotation Yrotation
          JOINT rForeArm
          {
            OFFSET -28.1742 -1.7115 0.48768
            CHANNELS 3 Zrotation Xrotation Yrotation
            JOINT rHand
            {
              OFFSET -22.5879 0.773209 7.07136
              CHANNELS 3 Zrotation Xrotation Yrotation
              JOINT rThumb1
              {
                OFFSET -1.2192 -0.487915 3.41376
                CHANNELS 3 Zrotation Xrotation Yrotation
                JOINT rThumb2
                {
                  OFFSET -3.37035 -0.52449 3.41376
                  CHANNELS 3 Zrotation Xrotation Yrotation
                  End Site
                  {
                    OFFSET -1.78271 -1.18214 1.43049
                  }
                }
              }
              JOINT rIndex1
              {
                OFFSET -7.75947 0.938293 5.60832
                CHANNELS 3 Zrotation Xrotation Yrotation
                JOINT rIndex2
                {
                  OFFSET -2.54057 -0.884171 1.56538
                  CHANNELS 3 Zrotation Xrotation Yrotation
                  End Site
                  {
                    OFFSET -1.62519 -0.234802 1.16502
                  }
                }
              }
              JOINT rMid1
              {
                OFFSET -8.24714 1.18213 3.41376
                CHANNELS 3 Zrotation Xrotation Yrotation
                JOINT rMid2
                {
                  OFFSET -3.10165 -0.590103 1.0647
                  CHANNELS 3 Zrotation Xrotation Yrotation
                  End Site
                  {
                    OFFSET -2.48547 -0.328903 0.83742
                  }
                }
              }
              JOINT rRing1
              {
                OFFSET -8.82822 0.546677 1.51678
                CHANNELS 3 Zrotation Xrotation Yrotation
                JOINT rRing2
                {
                  OFFSET -2.60934 -0.819778 -0.0198488
                  CHANNELS 3 Zrotation Xrotation Yrotation
                  End Site
                  {
                    OFFSET -2.33842 -0.294052 0.168128
                  }
                }
              }
              JOINT rPinky1
              {
                OFFSET -8.27202 -0.0477905 -0.4584
                CHANNELS 3 Zrotation Xrotation Yrotation
                JOINT rPinky2
                {
                  OFFSET -1.82734 -0.647385 -0.700984
                  CHANNELS 3 Zrotation Xrotation Yrotation
                  End Site
                  {
                    OFFSET -1.69225 -0.51767 -0.607171
                  }
                }
              }
            }
          }
        }
      }
      JOINT lCollar
      {
        OFFSET 2.68224 19.2634 -4.8768
        CHANNELS 3 Zrotation Xrotation Yrotation
        JOINT lShldr
        {
          OFFSET 8.77824 -1.95073 1.46304
          CHANNELS 3 Zrotation Xrotation Yrotation
          JOINT lForeArm
          {
            OFFSET 28.1742 -1.7115 0.48768
            CHANNELS 3 Zrotation Xrotation Yrotation
            JOINT lHand
            {
              OFFSET 22.5879 0.773209 7.07136
              CHANNELS 3 Zrotation Xrotation Yrotation
              JOINT lThumb1
              {
                OFFSET 1.2192 -0.487915 3.41376
                CHANNELS 3 Zrotation Xrotation Yrotation
                JOINT lThumb2
                {
                  OFFSET 3.37035 -0.52449 3.41376
                  CHANNELS 3 Zrotation Xrotation Yrotation
                  End Site
                  {
                    OFFSET 1.78271 -1.18214 1.43049
                  }
                }
              }
              JOINT lIndex1
              {
                OFFSET 7.75947 0.938293 5.60832
                CHANNELS 3 Zrotation Xrotation Yrotation
                JOINT lIndex2
                {
                  OFFSET 2.54057 -0.884171 1.56538
                  CHANNELS 3 Zrotation Xrotation Yrotation
                  End Site
                  {
                    OFFSET 1.62519 -0.234802 1.16502
                  }
                }
              }
              JOINT lMid1
              {
                OFFSET 8.24714 1.18213 3.41376
                CHANNELS 3 Zrotation Xrotation Yrotation
                JOINT lMid2
                {
                  OFFSET 3.10165 -0.590103 1.0647
                  CHANNELS 3 Zrotation Xrotation Yrotation
                  End Site
                  {
                    OFFSET 2.48547 -0.328903 0.83742
                  }
                }
              }
              JOINT lRing1
              {
                OFFSET 8.82822 0.546677 1.51678
                CHANNELS 3 Zrotation Xrotation Yrotation
                JOINT lRing2
                {
                  OFFSET 2.60934 -0.819778 -0.0198488
                  CHANNELS 3 Zrotation Xrotation Yrotation
                  End Site
                  {
                    OFFSET 2.33842 -0.294052 0.168128
                  }
                }
              }
              JOINT lPinky1
              {
                OFFSET 8.27202 -0.0477905 -0.4584
                CHANNELS 3 Zrotation Xrotation Yrotation
                JOINT lPinky2
                {
                  OFFSET 1.82734 -0.647385 -0.700984
                  CHANNELS 3 Zrotation Xrotation Yrotation
                  End Site
                  {
                    OFFSET 1.69225 -0.51767 -0.607171
                  }
                }
              }
            }
          }
        }
      }
    }
  }
  JOINT rButtock
  {
    OFFSET -8.77824 4.35084 1.2192
    CHANNELS 3 Zrotation Xrotation Yrotation
    JOINT rThigh
    {
      OFFSET 0 -1.70687 -2.19456
      CHANNELS 3 Zrotation Xrotation Yrotation
      JOINT rShin
      {
        OFFSET 0 -36.8199 0.73152
        CHANNELS 3 Zrotation Xrotation Yrotation
        JOINT rFoot
        {
          OFFSET 0.73152 -45.1104 -5.12064
          CHANNELS 3 Zrotation Xrotation Yrotation
          End Site
          {
            OFFSET -1.1221 -3.69964 12.103
          }
        }
      }
    }
  }
  JOINT lButtock
  {
    OFFSET 8.77824 4.35084 1.2192
    CHANNELS 3 Zrotation Xrotation Yrotation
    JOINT lThigh
    {
      OFFSET 0 -1.70687 -2.19456
      CHANNELS 3 Zrotation Xrotation Yrotation
      JOINT lShin
      {
        OFFSET 0 -36.8199 0.73152
        CHANNELS 3 Zrotation Xrotation Yrotation
        JOINT lFoot
        {
          OFFSET -0.73152 -45.1104 -5.12064
          CHANNELS 3 Zrotation Xrotation Yrotation
          End Site
          {
            OFFSET 1.1221 -3.69964 12.103
          }
        }
      }
    }
  }
}
MOTION
Frames:	7
Frame Time:	0.03333
43.5446 69.6654 -10.1767 -6.440247 -18.572392 11.199225 6.509562 -8.451441 1.230176 4.150945 -9.688544 -9.880881 7.448334 7.013564 65.689966 -23.040863 4.848233 -89.327567 -0.002572 0.0 -0.003155 0.002811 -0.0 -0.004953 -149.904411 22.421544 154.974899 -114.934413 58.86765 119.836608 148.269727 -80.426065 22.340109 164.965751 -25.428927 142.599102 -7.758266 7.43925 1.681777 19.309234 -24.111031 -7.873794 -1.161627 1.861142 0.667906 -9.677561 25.481354 8.219263 -15.319254 32.808733 11.208665 168.07346 -64.101142 133.152139 -145.120643 2.05597 -179.77204 -71.399774 -78.001905 -92.74677 -6.421917 -14.357502 -6.037524 -7.524674 -22.483031 -9.275239 59.832192 -86.721584 81.632179 132.759723 10.242762 -134.959598 -111.953755 81.681714 -102.908704 -162.955354 -24.054892 -143.695767 -17.491136 -17.281778 0.028974 115.058939 11.251307 -101.892061 166.824242 -43.973493 -122.060123 143.34162 14.816001 -115.188062 82.840835 61.109745 -74.53228 161.046788 1.268154 -142.430705 145.099928 -1.522184 178.650154 -11.336001 13.754996 7.377095 126.796094 -26.618548 124.511818 10.185466 -25.535289 13.100693 -0.004783 0.000414 -0.004784 0.125949 -36.009492 0.214228 46.985194 53.339723 130.839089 -116.618882 37.353074 -154.64038 -0.000677 -8.6e-05 0.00087 22.317707 -17.621812 -143.77224 -141.983677 -75.460134 137.704294 -160.719611 36.453616 75.60338
44.9409 70.7435 -10.2192 -5.235046 -18.70675 10.185293 5.997392 -7.356913 -0.0 3.015297 -9.498744 -6.421594 -9.665819 10.335935 -69.018223 22.509338 -3.915679 49.334091 0.005794 -0.0 -0.000644 -0.001318 0.0 -0.002405 -158.515033 -30.702133 167.038355 87.725383 -77.832879 93.092259 -65.760226 45.187554 -84.941684 83.333797 -65.629198 72.1958 4.655508 -4.637982 -0.530141 -125.524543 -15.576525 113.008532 -123.86934 22.788261 104.455697 -81.584798 55.583478 60.111455 -17.258947 35.487577 12.859332 -11.510266 33.757269 9.293749 0.000334 -0.018405 -0.006526 10.798878 -7.444184 -0.972487 1.481489 4.003835 1.360355 -167.4952 72.952525 -148.012338 -0.058979 -0.352735 0.078894 -84.706786 -75.736051 -97.679994 41.085037 -1.305401 -154.287465 -16.948701 -26.52488 -12.554027 95.360798 37.750289 -54.682649 3.63727 -17.512413 -26.757781 -9.086718 -15.965826 4.196999 -97.370068 -61.648154 -42.576711 17.36937 35.632252 -12.95444 163.135467 -4.738082 -143.308289 145.119766 0.184931 179.187611 -12.074181 36.619649 4.847717 -12.98624 44.344604 -10.762666 32.416793 -45.76922 32.22662 -0.0 -0.001264 -0.000738 -0.568818 -34.470375 -3.694613 38.282572 45.976571 54.519905 -154.483806 -15.481944 133.487156 179.988608 75.749117 0.009373 -144.541488 49.02887 39.796901 98.455785 52.574651 158.825721 -20.430323 71.978619 111.602236
46.6309 72.2318 -10.3102 -3.619282 -19.302882 9.458142 5.167299 -11.410652 -180.0 -2.031187 4.243126 176.509586 -9.419292 11.341889 -79.946034 25.377163 0.888261 63.255722 0.004332 -0.0 -0.000662 9e-06 0.0 0.001748 -3.908548 18.449138 4.804397 -148.112933 86.419494 -176.177418 -164.459654 -42.866007 -54.205575 -5.045719 33.986971 3.141226 -94.792084 37.827754 54.283213 79.974147 -48.963123 35.743072 -160.014685 -33.011767 122.699143 5.822985 13.705883 -7.107219 3.775938 -11.559297 -1.814204 -7.266889 26.027261 5.974581 -145.118949 0.310577 -179.224762 -151.057318 -32.037582 -173.803786 -126.799346 -26.621649 -124.514904 3.108709 0.138133 -1.635625 150.168485 21.535225 -155.275306 119.868469 -85.981513 145.458703 -159.93526 75.575348 -43.25923 -154.071562 -33.981697 -141.316781 78.031403 38.688462 -42.412282 -16.385553 -22.270272 -20.888093 46.20931 39.652892 -36.317816 164.55268 -11.288387 -112.141019 -5.893759 -18.351932 2.542312 -2.606487 1.640252 -0.207419 145.118459 0.226138 179.200567 -11.903075 29.423665 5.659982 124.849744 -29.038699 122.622269 -54.878265 82.384733 16.904042 0.004769 0.00016 0.002384 -1.643906 -35.39449 -180.0 -21.249361 -49.459717 92.996332 -10.16059 -20.356437 40.04965 0.001703 0.00016 -0.0 23.858823 -21.21818 50.706299 84.256007 64.035183 6.604225 -95.359118 62.289655 2.898453
48.4593 74.0689 -10.5747 -1.605416 -20.228047 8.822981 4.035387 -10.618657 -167.076064 -0.230977 3.831835 166.830152 9.40882 5.476412 74.27073 -23.783724 5.055481 -84.802142 0.000563 0.0 0.000704 0.000563 0.0 0.000704 -159.221132 -48.028587 170.414606 90.470673 -87.172094 114.384603 178.424043 -26.538773 -52.441499 -13.377367 51.00859 5.947958 -175.19756 -12.846332 89.80795 119.492954 -62.75452 88.78347 15.80955 -28.408935 -5.782474 -10.317738 29.938857 9.787483 -10.975397 25.790108 7.639299 -11.529333 33.757878 9.269052 -69.296608 72.945978 87.017444 -158.900205 -25.776076 179.688274 15.503837 54.138174 12.144506 -76.675673 -54.400189 -75.470558 -3.237728 -26.386793 5.17433 166.30146 13.690093 -175.972697 -88.589044 -58.571866 129.570271 167.528162 62.127919 -148.447937 -5.594632 -5.581141 0.591648 124.094762 -12.329838 -111.944922 -5.741579 -9.851303 2.889183 65.064699 48.642829 -51.058177 -6.907773 -21.62418 2.809883 42.14645 58.538553 -36.105757 72.756767 -72.145851 89.770944 -5.414457 -62.300035 18.97838 148.070462 21.78519 144.32632 11.139871 -25.29591 13.306131 0.002613 0.00114 0.003919 -3.440892 -34.358971 173.91879 -20.947327 -55.446248 6.415524 -137.629803 66.413553 -134.66498 0.0 -0.000651 0.001818 20.577788 -22.017954 45.040915 63.904338 69.952531 95.417989 118.55537 47.584008 157.624871
50.3276 76.0906 -11.3303 0.20611 -21.500424 8.732469 0.550796 -5.547989 15.583789 -0.193761 -8.350178 -14.056762 -8.231482 4.003258 -51.380509 22.674596 -6.589896 43.791459 -0.001307 -0.0 0.000957 0.003968 -0.0 -0.001185 3.543666 -62.053072 -13.037535 106.159423 54.493604 -101.967112 24.247271 1.643454 153.703409 -139.759357 72.473833 120.291217 -179.314083 -16.821394 89.36798 -127.661291 16.236963 63.322866 37.215047 -57.91807 -0.644235 -166.736532 -29.969765 111.908221 10.083884 -31.59219 -3.25244 -42.191284 58.522988 36.118918 -145.122446 1.975032 -179.747646 -67.292431 87.683602 80.401862 12.987383 44.344311 10.763781 -147.705834 10.302661 -143.016197 -0.162822 -0.990065 0.218581 37.667476 -77.238219 68.156873 170.662024 -67.264043 -22.848245 -143.17774 -46.904723 -131.787794 -83.253741 -50.258051 -33.616318 159.974304 -31.166759 -128.593207 -52.738967 -67.700023 -9.660342 177.540181 -43.939107 -108.00038 -78.537411 -80.919004 -49.688009 129.264114 52.000208 -118.246714 -0.005018 1.854491 -0.58203 154.383212 12.771231 -170.10224 140.025784 -2.441257 137.138447 147.40985 12.123865 141.842729 -0.004012 -0.00016 -0.002006 -4.397708 -32.187398 -35.382811 -23.20882 46.88592 -92.935638 8.213357 18.959247 97.284618 0.0 -0.00016 0.001114 16.143042 -21.80868 37.922817 16.120267 54.123337 -47.515539 -52.923079 -46.366802 34.131056
52.1705 77.4869 -12.5584 1.041922 -23.191021 9.658464 -0.182257 -10.480357 -177.151548 -1.207091 3.648735 -179.724449 5.988514 16.178784 163.4644 -8.846806 33.745082 -163.32998 0.004451 -0.0 -0.001907 -0.00081 -0.0 0.000258 -155.416906 -2.95172 161.717784 -75.243753 34.206472 42.250891 171.736041 -42.826073 -6.129975 176.51652 3.136313 145.644998 -160.053126 2.213531 88.877198 -89.460188 4.812456 36.79374 60.461797 -70.523582 15.711913 7.954043 14.245118 -2.327119 6.533131 -20.414943 -2.717522 -7.381038 26.183238 6.038464 -114.669976 66.731643 135.092522 -123.515188 81.881964 133.026541 -135.820593 -11.892004 -133.18525 83.65325 84.817852 -44.678061 78.727709 68.390792 -81.807791 101.030918 33.097733 -127.333483 -152.46053 10.576421 33.927405 154.868148 70.662721 -137.016129 175.199429 -12.845532 -89.808161 71.768357 4.149019 -20.856324 151.679806 -17.764714 -121.23697 -4.451435 13.391405 7.286726 82.840837 61.109741 -74.532279 171.992339 -31.384975 -143.889861 69.297768 72.946296 -87.017231 153.332666 -56.955856 172.443426 -9.599014 31.055999 -8.342718 -9.585354 24.862095 -5.749832 0.005337 -0.002285 0.005337 -6.567222 -36.166308 -180.0 -20.374522 -49.938832 21.599041 156.963117 18.974154 -97.791177 -0.000318 0.000784 -0.000476 14.105381 -24.199545 -180.0 29.496626 -43.858765 159.571805 -9.632718 -18.963729 68.107966
54.0036 78.0968 -13.889199999999999 0.893441 -25.286233 11.164434 -0.43966 -6.298594 -0.0 1.73167 -8.659674 5.196417 10.419602 2.015158 71.65099 -20.737782 -2.00219 -69.594557 -0.002761 0.0 -0.003288 0.00251 -0.0 -0.005429 3.268724 -26.755835 -5.241681 76.761457 30.293867 -45.938642 53.623849 82.770085 136.534997 -177.683928 7.180702 143.144387 162.658807 -31.874326 84.279023 -89.032502 22.815084 33.767726 -1.16118 1.861034 0.669287 10.555475 1.227227 -0.357156 -125.64377 49.839872 115.274055 -7.268581 26.165115 6.332116 -0.015005 -1.322878 -0.417651 -23.29055 72.957651 36.426805 -112.780745 -40.024398 -110.811839 22.727277 58.70412 6.982551 159.220817 -48.028574 -170.414775 -109.013112 88.135685 141.752515 -177.174229 19.927128 -30.633993 -164.230668 -23.669028 -143.416881 -114.538658 -50.245389 -55.721863 16.090456 -57.253804 31.35811 -2.325978 -3.867873 1.258679 6.414608 23.033588 -6.692975 -7.903561 -24.807676 3.014285 13.468838 36.391429 -10.65256 -0.004228 1.770364 -0.556764 -8.934962 14.181223 -1.881079 46.959195 -48.669109 45.714396 19.607247 -37.625682 21.590032 179.989836 75.751309 0.006955 172.519694 38.456726 4.551777 21.139429 37.376812 20.738694 -99.797805 49.692545 33.099195 -179.954919 75.748621 -0.037092 -160.20501 50.522606 -24.999508 -25.550451 50.777666 160.654853 33.108346 58.953061 -125.920815
